<svg width="94" height="94" viewBox="0 0 94 94" fill="none" xmlns="http://www.w3.org/2000/svg">
<path d="M62.667 25.4579C68.6159 25.4579 73.4379 20.6352 73.4379 14.6869C73.4379 8.73868 68.6159 3.91602 62.667 3.91602C62.6571 3.91602 62.648 3.91742 62.6381 3.91742C38.8577 3.93291 19.584 23.2151 19.584 46.9997C19.584 70.7941 38.8732 90.0827 62.667 90.0827C68.6159 90.0827 73.4379 85.26 73.4379 79.3118C73.4379 73.3635 68.6159 68.5408 62.667 68.5408L62.6571 68.5415C50.7648 68.5359 41.1251 58.8934 41.1251 46.9997C41.1251 35.1025 50.7698 25.4579 62.667 25.4579Z" fill="#0DC167"/>
</svg>
